# xmcd
#
# Track frame offsets:
#	150
#	16933
#	31104
#	53461
#	72957
#	103634
#	122458
#	139329
#	156771
#	167155
#
# Disc length: 2431 seconds
#
# Revision: 1
# Processed by: cddbd v1.5.2PL0 Copyright (c) Steve Scherf et al.
# Submitted via: audiograbber 1.83.01
#
DISCID=77097d0a
DTITLE=Robbie Ducey Band - Acey Ducey
DYEAR=1900
DGENRE=Blues
TTITLE0=It's Wrong
TTITLE1=What's Wrong (With You)
TTITLE2=All I Need
TTITLE3=At Last
TTITLE4=Lay The Hammer Down
TTITLE5=Trouble
TTITLE6=Nothin' But A Thing
TTITLE7=Check Out Her Momma
TTITLE8=Need You Right Now
TTITLE9=Highway 104 (bugaloo)
EXTD=
EXTT0=
EXTT1=
EXTT2=
EXTT3=
EXTT4=
EXTT5=
EXTT6=
EXTT7=
EXTT8=
EXTT9=
PLAYORDER=
